{"accessors":[{"bufferView":0,"componentType":5126,"count":1662,"max":[4.73046588897705,71.6577987670898,39.9117813110352],"min":[-4.73046588897705,-5.70883274078369,-7.42332744598389],"normalized":false,"type":"VEC3"},{"bufferView":1,"componentType":5126,"count":1662,"max":[0.00137524132151157,0.435684144496918,1.0,1.0],"min":[-1.0,-1.0,-0.577456057071686,1.0],"normalized":false,"type":"VEC4"},{"bufferView":2,"componentType":5126,"count":1662,"max":[1.0,1.0,1.0],"min":[-1.0,-1.0,-1.0],"normalized":false,"type":"VEC3"},{"bufferView":3,"componentType":5126,"count":1662,"max":[0.970824778079987,0.193789571523666],"min":[0.873945236206055,0.150148779153824],"normalized":false,"type":"VEC2"},{"bufferView":4,"componentType":5126,"count":1662,"max":[1.0,1.0,1.0,1.0],"min":[0.0,0.0,0.0,1.0],"normalized":false,"type":"VEC4"},{"bufferView":5,"componentType":5123,"count":1662,"max":[1661.0],"min":[0.0],"normalized":false,"type":"SCALAR"},{"bufferView":6,"componentType":5126,"count":222,"max":[2.2616662979126,71.2034683227539,7.42764282226563],"min":[-2.2616662979126,-2.0,-6.34657096862793],"normalized":false,"type":"VEC3"},{"bufferView":7,"componentType":5126,"count":222,"max":[0.0000152601860463619,0.0,1.0,1.0],"min":[-1.0,-0.590799570083618,-0.577296435832977,1.0],"normalized":false,"type":"VEC4"},{"bufferView":8,"componentType":5126,"count":222,"max":[1.0,0.882345497608185,0.47060227394104],"min":[-1.0,-0.0000305189751088619,-1.0],"normalized":false,"type":"VEC3"},{"bufferView":9,"componentType":5126,"count":222,"max":[0.640009164810181,0.992217898368835],"min":[0.388906687498093,0.00735484855249524],"normalized":false,"type":"VEC2"},{"bufferView":10,"componentType":5126,"count":222,"max":[1.0,1.0,1.0,1.0],"min":[0.105882354080677,0.105882354080677,0.105882354080677,1.0],"normalized":false,"type":"VEC4"},{"bufferView":11,"componentType":5123,"count":222,"max":[221.0],"min":[0.0],"normalized":false,"type":"SCALAR"},{"bufferView":12,"componentType":5126,"count":1662,"max":[7.09569883346558,107.486694335938,59.8676719665527],"min":[-7.09569883346558,-8.5632495880127,-11.1349906921387],"normalized":false,"type":"VEC3"},{"bufferView":13,"componentType":5126,"count":1662,"max":[0.00137524132151157,0.435684144496918,1.0,1.0],"min":[-1.0,-1.0,-0.577456057071686,1.0],"normalized":false,"type":"VEC4"},{"bufferView":14,"componentType":5126,"count":1662,"max":[1.0,1.0,1.0],"min":[-1.0,-1.0,-1.0],"normalized":false,"type":"VEC3"},{"bufferView":15,"componentType":5126,"count":1662,"max":[0.970824778079987,0.193789571523666],"min":[0.873945236206055,0.150148779153824],"normalized":false,"type":"VEC2"},{"bufferView":16,"componentType":5126,"count":1662,"max":[1.0,1.0,1.0,1.0],"min":[0.0,0.0,0.0,1.0],"normalized":false,"type":"VEC4"},{"bufferView":17,"componentType":5123,"count":1662,"max":[1661.0],"min":[0.0],"normalized":false,"type":"SCALAR"},{"bufferView":18,"componentType":5126,"count":222,"max":[3.3924994468689,106.805206298828,11.1414632797241],"min":[-3.3924994468689,-3.0,-9.51985645294189],"normalized":false,"type":"VEC3"},{"bufferView":19,"componentType":5126,"count":222,"max":[0.0000152601860463619,0.0,1.0,1.0],"min":[-1.0,-0.590799570083618,-0.577296435832977,1.0],"normalized":false,"type":"VEC4"},{"bufferView":20,"componentType":5126,"count":222,"max":[1.0,0.882345497608185,0.47060227394104],"min":[-1.0,-0.0000305189751088619,-1.0],"normalized":false,"type":"VEC3"},{"bufferView":21,"componentType":5126,"count":222,"max":[0.640009164810181,0.992217898368835],"min":[0.388906687498093,0.00735484855249524],"normalized":false,"type":"VEC2"},{"bufferView":22,"componentType":5126,"count":222,"max":[1.0,1.0,1.0,1.0],"min":[0.105882354080677,0.105882354080677,0.105882354080677,1.0],"normalized":false,"type":"VEC4"},{"bufferView":23,"componentType":5123,"count":222,"max":[221.0],"min":[0.0],"normalized":false,"type":"SCALAR"},{"bufferView":24,"componentType":5126,"count":1662,"max":[9.4609317779541,143.31559753418,79.8235626220703],"min":[-9.4609317779541,-11.4176654815674,-14.8466548919678],"normalized":false,"type":"VEC3"},{"bufferView":25,"componentType":5126,"count":1662,"max":[0.00137524132151157,0.435684144496918,1.0,1.0],"min":[-1.0,-1.0,-0.577456057071686,1.0],"normalized":false,"type":"VEC4"},{"bufferView":26,"componentType":5126,"count":1662,"max":[1.0,1.0,1.0],"min":[-1.0,-1.0,-1.0],"normalized":false,"type":"VEC3"},{"bufferView":27,"componentType":5126,"count":1662,"max":[0.970824778079987,0.193789571523666],"min":[0.873945236206055,0.150148779153824],"normalized":false,"type":"VEC2"},{"bufferView":28,"componentType":5126,"count":1662,"max":[1.0,1.0,1.0,1.0],"min":[0.0,0.0,0.0,1.0],"normalized":false,"type":"VEC4"},{"bufferView":29,"componentType":5123,"count":1662,"max":[1661.0],"min":[0.0],"normalized":false,"type":"SCALAR"},{"bufferView":30,"componentType":5126,"count":222,"max":[4.5233325958252,142.406936645508,14.8552856445313],"min":[-4.5233325958252,-4.0,-12.6931419372559],"normalized":false,"type":"VEC3"},{"bufferView":31,"componentType":5126,"count":222,"max":[0.0000152601860463619,0.0,1.0,1.0],"min":[-1.0,-0.590799570083618,-0.577296435832977,1.0],"normalized":false,"type":"VEC4"},{"bufferView":32,"componentType":5126,"count":222,"max":[1.0,0.882345497608185,0.47060227394104],"min":[-1.0,-0.0000305189751088619,-1.0],"normalized":false,"type":"VEC3"},{"bufferView":33,"componentType":5126,"count":222,"max":[0.640009164810181,0.992217898368835],"min":[0.388906687498093,0.00735484855249524],"normalized":false,"type":"VEC2"},{"bufferView":34,"componentType":5126,"count":222,"max":[1.0,1.0,1.0,1.0],"min":[0.105882354080677,0.105882354080677,0.105882354080677,1.0],"normalized":false,"type":"VEC4"},{"bufferView":35,"componentType":5123,"count":222,"max":[221.0],"min":[0.0],"normalized":false,"type":"SCALAR"}],"asset":{"generator":"Godot Engine v4.5.stable.official@876b290332ec6f2e6d173d08162a02aa7e6ca46d","version":"2.0"},"bufferViews":[{"buffer":0,"byteLength":19944,"byteStride":12,"target":34962},{"buffer":0,"byteLength":26592,"byteOffset":19944,"byteStride":16,"target":34962},{"buffer":0,"byteLength":19944,"byteOffset":46536,"byteStride":12,"target":34962},{"buffer":0,"byteLength":13296,"byteOffset":66480,"byteStride":8,"target":34962},{"buffer":0,"byteLength":26592,"byteOffset":79776,"byteStride":16,"target":34962},{"buffer":0,"byteLength":3324,"byteOffset":106368,"target":34963},{"buffer":0,"byteLength":2664,"byteOffset":109692,"byteStride":12,"target":34962},{"buffer":0,"byteLength":3552,"byteOffset":112356,"byteStride":16,"target":34962},{"buffer":0,"byteLength":2664,"byteOffset":115908,"byteStride":12,"target":34962},{"buffer":0,"byteLength":1776,"byteOffset":118572,"byteStride":8,"target":34962},{"buffer":0,"byteLength":3552,"byteOffset":120348,"byteStride":16,"target":34962},{"buffer":0,"byteLength":444,"byteOffset":123900,"target":34963},{"buffer":0,"byteLength":19944,"byteOffset":124344,"byteStride":12,"target":34962},{"buffer":0,"byteLength":26592,"byteOffset":144288,"byteStride":16,"target":34962},{"buffer":0,"byteLength":19944,"byteOffset":170880,"byteStride":12,"target":34962},{"buffer":0,"byteLength":13296,"byteOffset":190824,"byteStride":8,"target":34962},{"buffer":0,"byteLength":26592,"byteOffset":204120,"byteStride":16,"target":34962},{"buffer":0,"byteLength":3324,"byteOffset":230712,"target":34963},{"buffer":0,"byteLength":2664,"byteOffset":234036,"byteStride":12,"target":34962},{"buffer":0,"byteLength":3552,"byteOffset":236700,"byteStride":16,"target":34962},{"buffer":0,"byteLength":2664,"byteOffset":240252,"byteStride":12,"target":34962},{"buffer":0,"byteLength":1776,"byteOffset":242916,"byteStride":8,"target":34962},{"buffer":0,"byteLength":3552,"byteOffset":244692,"byteStride":16,"target":34962},{"buffer":0,"byteLength":444,"byteOffset":248244,"target":34963},{"buffer":0,"byteLength":19944,"byteOffset":248688,"byteStride":12,"target":34962},{"buffer":0,"byteLength":26592,"byteOffset":268632,"byteStride":16,"target":34962},{"buffer":0,"byteLength":19944,"byteOffset":295224,"byteStride":12,"target":34962},{"buffer":0,"byteLength":13296,"byteOffset":315168,"byteStride":8,"target":34962},{"buffer":0,"byteLength":26592,"byteOffset":328464,"byteStride":16,"target":34962},{"buffer":0,"byteLength":3324,"byteOffset":355056,"target":34963},{"buffer":0,"byteLength":2664,"byteOffset":358380,"byteStride":12,"target":34962},{"buffer":0,"byteLength":3552,"byteOffset":361044,"byteStride":16,"target":34962},{"buffer":0,"byteLength":2664,"byteOffset":364596,"byteStride":12,"target":34962},{"buffer":0,"byteLength":1776,"byteOffset":367260,"byteStride":8,"target":34962},{"buffer":0,"byteLength":3552,"byteOffset":369036,"byteStride":16,"target":34962},{"buffer":0,"byteLength":444,"byteOffset":372588,"target":34963}],"buffers":[{"byteLength":373032,"uri":"lamp-0030.bin"}],"extensionsUsed":["GODOT_single_root"],"images":[{"uri":"textures%2FCube1_auv_albedo.png"},{"uri":"textures%2FCube1_auv2_albedo.png"},{"uri":"textures%2FCube1_auv3_albedo.png"}],"materials":[{"alphaMode":"BLEND","emissiveFactor":[0.0,0.0,0.0],"extensions":{},"name":"Cube1_auv","pbrMetallicRoughness":{"baseColorFactor":[1.0,1.0,1.0,1.0],"baseColorTexture":{"index":0},"metallicFactor":0.100000001490116,"roughnessFactor":0.800000011920929}},{"alphaMode":"BLEND","emissiveFactor":[0.0,0.0,0.0],"extensions":{},"name":"green-glass","pbrMetallicRoughness":{"baseColorFactor":[1.0,1.0,1.0,0.469999998807907],"metallicFactor":0.100000001490116,"roughnessFactor":0.800000011920929}},{"alphaMode":"BLEND","emissiveFactor":[0.0,0.0,0.0],"extensions":{},"name":"Cube1_auv2","pbrMetallicRoughness":{"baseColorFactor":[1.0,1.0,1.0,1.0],"baseColorTexture":{"index":1},"metallicFactor":0.100000001490116,"roughnessFactor":0.800000011920929}},{"alphaMode":"BLEND","emissiveFactor":[0.0,0.0,0.0],"extensions":{},"name":"green-glass2","pbrMetallicRoughness":{"baseColorFactor":[1.0,1.0,1.0,0.469999998807907],"metallicFactor":0.100000001490116,"roughnessFactor":0.800000011920929}},{"alphaMode":"BLEND","emissiveFactor":[0.0,0.0,0.0],"extensions":{},"name":"Cube1_auv3","pbrMetallicRoughness":{"baseColorFactor":[1.0,1.0,1.0,1.0],"baseColorTexture":{"index":2},"metallicFactor":0.100000001490116,"roughnessFactor":0.800000011920929}},{"alphaMode":"BLEND","emissiveFactor":[0.0,0.0,0.0],"extensions":{},"name":"green-glass3","pbrMetallicRoughness":{"baseColorFactor":[1.0,1.0,1.0,0.469999998807907],"metallicFactor":0.100000001490116,"roughnessFactor":0.800000011920929}}],"meshes":[{"primitives":[{"attributes":{"COLOR_0":4,"NORMAL":2,"POSITION":0,"TANGENT":1,"TEXCOORD_0":3},"indices":5,"material":0,"mode":4},{"attributes":{"COLOR_0":10,"NORMAL":8,"POSITION":6,"TANGENT":7,"TEXCOORD_0":9},"indices":11,"material":1,"mode":4}]},{"primitives":[{"attributes":{"COLOR_0":16,"NORMAL":14,"POSITION":12,"TANGENT":13,"TEXCOORD_0":15},"indices":17,"material":2,"mode":4},{"attributes":{"COLOR_0":22,"NORMAL":20,"POSITION":18,"TANGENT":19,"TEXCOORD_0":21},"indices":23,"material":3,"mode":4}]},{"primitives":[{"attributes":{"COLOR_0":28,"NORMAL":26,"POSITION":24,"TANGENT":25,"TEXCOORD_0":27},"indices":29,"material":4,"mode":4},{"attributes":{"COLOR_0":34,"NORMAL":32,"POSITION":30,"TANGENT":31,"TEXCOORD_0":33},"indices":35,"material":5,"mode":4}]}],"nodes":[{"children":[1,2,3]},{"mesh":0,"name":"Cube1"},{"mesh":1,"name":"_MeshInstance3D_579"},{"mesh":2,"name":"_MeshInstance3D_580"}],"samplers":[{"magFilter":9729,"minFilter":9987,"wrapS":10497,"wrapT":10497}],"scene":0,"scenes":[{"nodes":[0]}],"textures":[{"sampler":0,"source":0},{"sampler":0,"source":1},{"sampler":0,"source":2}]}